<svg xmlns="http://www.w3.org/2000/svg" xmlns:xlink="http://www.w3.org/1999/xlink" width="500" zoomAndPan="magnify" viewBox="0 0 375 74.999997" height="100" preserveAspectRatio="xMidYMid meet" version="1.0"><defs><g/><clipPath id="eb45790801"><path d="M 149.101562 15.59375 L 180.507812 15.59375 L 180.507812 47.09375 L 149.101562 47.09375 Z M 149.101562 15.59375 " clip-rule="nonzero"/></clipPath><clipPath id="9a1064aceb"><path d="M 149.949219 28.300781 L 153.699219 28.300781 L 153.699219 37.5 L 149.949219 37.5 Z M 149.949219 28.300781 " clip-rule="nonzero"/></clipPath></defs><path fill="#ffffff" d="M 167.429688 34.949219 L 168.792969 34.949219 C 169.425781 34.949219 169.957031 34.417969 169.957031 33.785156 L 169.957031 31.355469 C 169.957031 30.726562 169.425781 30.191406 168.792969 30.191406 L 167.429688 30.191406 C 166.800781 30.191406 166.265625 30.726562 166.265625 31.355469 L 166.265625 33.785156 C 166.265625 34.417969 166.765625 34.949219 167.429688 34.949219 Z M 167.429688 34.949219 " fill-opacity="1" fill-rule="nonzero"/><path fill="#ffffff" d="M 161.609375 34.949219 L 162.972656 34.949219 C 163.605469 34.949219 164.136719 34.417969 164.136719 33.785156 L 164.136719 31.355469 C 164.136719 30.726562 163.605469 30.191406 162.972656 30.191406 L 161.609375 30.191406 C 160.980469 30.191406 160.445312 30.726562 160.445312 31.355469 L 160.445312 33.785156 C 160.445312 34.417969 160.980469 34.949219 161.609375 34.949219 Z M 161.609375 34.949219 " fill-opacity="1" fill-rule="nonzero"/><g clip-path="url(#eb45790801)"><path fill="#ffffff" d="M 164.804688 15.59375 C 173.515625 15.59375 180.601562 22.675781 180.601562 31.390625 C 180.601562 40.105469 173.515625 47.1875 164.804688 47.1875 L 151.5 47.1875 C 150.105469 47.1875 149.007812 46.054688 149.007812 44.691406 L 149.007812 31.390625 C 149.007812 22.675781 156.089844 15.59375 164.804688 15.59375 Z M 153.730469 33.617188 C 153.730469 34.648438 154.5625 35.449219 155.558594 35.449219 L 156.390625 35.449219 C 156.457031 35.449219 156.554688 35.449219 156.621094 35.414062 C 157.953125 38.242188 161.113281 40.203125 164.804688 40.203125 C 168.496094 40.203125 171.65625 38.242188 172.953125 35.449219 L 173.78125 35.449219 C 174.8125 35.449219 175.613281 34.617188 175.613281 33.617188 L 175.613281 31.523438 C 175.613281 30.492188 174.78125 29.695312 173.78125 29.695312 L 172.984375 29.695312 C 171.855469 27.300781 169.328125 25.503906 166.265625 25.070312 L 166.265625 23.078125 C 166.898438 22.710938 167.332031 22.046875 167.332031 21.246094 C 167.332031 20.082031 166.398438 19.152344 165.234375 19.152344 C 164.070312 19.152344 163.140625 20.082031 163.140625 21.246094 C 163.140625 22.011719 163.574219 22.710938 164.203125 23.078125 L 164.203125 24.972656 C 160.78125 25.203125 157.917969 27.066406 156.6875 29.695312 C 156.621094 29.695312 156.523438 29.660156 156.457031 29.660156 L 155.625 29.660156 C 154.59375 29.660156 153.796875 30.492188 153.796875 31.488281 L 153.796875 33.617188 Z M 153.730469 33.617188 " fill-opacity="1" fill-rule="nonzero"/></g><g clip-path="url(#9a1064aceb)"><path fill="#ffffff" d="M 149.949219 28.300781 L 153.699219 28.300781 L 153.699219 37.5 L 149.949219 37.5 Z M 149.949219 28.300781 " fill-opacity="1" fill-rule="nonzero"/></g><g fill="#ffffff" fill-opacity="1"><g transform="translate(6.880349, 46.544821)"><g><path d="M 2.234375 0 L 2.234375 -24.734375 L 6.625 -24.734375 L 6.625 -14.4375 C 7.195312 -15.375 7.96875 -16.109375 8.9375 -16.640625 C 9.914062 -17.179688 11.035156 -17.453125 12.296875 -17.453125 C 14.410156 -17.453125 16.046875 -16.785156 17.203125 -15.453125 C 18.359375 -14.128906 18.9375 -12.1875 18.9375 -9.625 L 18.9375 0 L 14.5625 0 L 14.5625 -9.203125 C 14.5625 -10.671875 14.269531 -11.796875 13.6875 -12.578125 C 13.101562 -13.359375 12.179688 -13.75 10.921875 -13.75 C 9.691406 -13.75 8.664062 -13.3125 7.84375 -12.4375 C 7.03125 -11.5625 6.625 -10.347656 6.625 -8.796875 L 6.625 0 Z M 2.234375 0 "/></g></g></g><g fill="#ffffff" fill-opacity="1"><g transform="translate(26.325177, 46.544821)"><g><path d="M 10.515625 0.40625 C 8.796875 0.40625 7.269531 0.0390625 5.9375 -0.6875 C 4.613281 -1.414062 3.570312 -2.441406 2.8125 -3.765625 C 2.0625 -5.097656 1.6875 -6.640625 1.6875 -8.390625 C 1.6875 -10.148438 2.054688 -11.71875 2.796875 -13.09375 C 3.546875 -14.46875 4.578125 -15.535156 5.890625 -16.296875 C 7.210938 -17.066406 8.765625 -17.453125 10.546875 -17.453125 C 12.222656 -17.453125 13.703125 -17.082031 14.984375 -16.34375 C 16.265625 -15.613281 17.265625 -14.613281 17.984375 -13.34375 C 18.703125 -12.070312 19.0625 -10.660156 19.0625 -9.109375 C 19.0625 -8.859375 19.054688 -8.59375 19.046875 -8.3125 C 19.035156 -8.039062 19.019531 -7.753906 19 -7.453125 L 6.046875 -7.453125 C 6.140625 -6.128906 6.601562 -5.085938 7.4375 -4.328125 C 8.269531 -3.578125 9.285156 -3.203125 10.484375 -3.203125 C 11.367188 -3.203125 12.113281 -3.398438 12.71875 -3.796875 C 13.332031 -4.191406 13.789062 -4.710938 14.09375 -5.359375 L 18.546875 -5.359375 C 18.234375 -4.285156 17.703125 -3.304688 16.953125 -2.421875 C 16.210938 -1.535156 15.296875 -0.84375 14.203125 -0.34375 C 13.117188 0.15625 11.890625 0.40625 10.515625 0.40625 Z M 10.546875 -13.875 C 9.472656 -13.875 8.519531 -13.570312 7.6875 -12.96875 C 6.863281 -12.363281 6.335938 -11.441406 6.109375 -10.203125 L 14.609375 -10.203125 C 14.535156 -11.328125 14.117188 -12.21875 13.359375 -12.875 C 12.609375 -13.539062 11.671875 -13.875 10.546875 -13.875 Z M 10.546875 -13.875 "/></g></g></g><g fill="#ffffff" fill-opacity="1"><g transform="translate(45.426453, 46.544821)"><g><path d="M 2.234375 0 L 2.234375 -24.734375 L 6.625 -24.734375 L 6.625 0 Z M 2.234375 0 "/></g></g></g><g fill="#ffffff" fill-opacity="1"><g transform="translate(52.881271, 46.544821)"><g><path d="M 2.234375 0 L 2.234375 -24.734375 L 6.625 -24.734375 L 6.625 0 Z M 2.234375 0 "/></g></g></g><g fill="#ffffff" fill-opacity="1"><g transform="translate(60.33609, 46.544821)"><g><path d="M 10.40625 0.40625 C 8.757812 0.40625 7.273438 0.03125 5.953125 -0.71875 C 4.640625 -1.476562 3.597656 -2.523438 2.828125 -3.859375 C 2.066406 -5.203125 1.6875 -6.753906 1.6875 -8.515625 C 1.6875 -10.285156 2.070312 -11.835938 2.84375 -13.171875 C 3.625 -14.515625 4.671875 -15.5625 5.984375 -16.3125 C 7.304688 -17.070312 8.789062 -17.453125 10.4375 -17.453125 C 12.070312 -17.453125 13.546875 -17.070312 14.859375 -16.3125 C 16.179688 -15.5625 17.222656 -14.515625 17.984375 -13.171875 C 18.753906 -11.835938 19.140625 -10.285156 19.140625 -8.515625 C 19.140625 -6.753906 18.753906 -5.203125 17.984375 -3.859375 C 17.222656 -2.523438 16.175781 -1.476562 14.84375 -0.71875 C 13.507812 0.03125 12.03125 0.40625 10.40625 0.40625 Z M 10.40625 -3.40625 C 11.550781 -3.40625 12.546875 -3.832031 13.390625 -4.6875 C 14.242188 -5.550781 14.671875 -6.828125 14.671875 -8.515625 C 14.671875 -10.210938 14.242188 -11.488281 13.390625 -12.34375 C 12.546875 -13.207031 11.5625 -13.640625 10.4375 -13.640625 C 9.269531 -13.640625 8.269531 -13.207031 7.4375 -12.34375 C 6.601562 -11.488281 6.1875 -10.210938 6.1875 -8.515625 C 6.1875 -6.828125 6.601562 -5.550781 7.4375 -4.6875 C 8.269531 -3.832031 9.257812 -3.40625 10.40625 -3.40625 Z M 10.40625 -3.40625 "/></g></g></g><g fill="#ffffff" fill-opacity="1"><g transform="translate(79.712207, 46.544821)"><g><path d="M 12.328125 0.40625 C 11.046875 0.40625 9.925781 0.164062 8.96875 -0.3125 C 8.007812 -0.789062 7.226562 -1.46875 6.625 -2.34375 L 6.15625 0 L 2.234375 0 L 2.234375 -24.734375 L 6.625 -24.734375 L 6.625 -14.609375 C 7.175781 -15.359375 7.90625 -16.019531 8.8125 -16.59375 C 9.71875 -17.164062 10.890625 -17.453125 12.328125 -17.453125 C 13.929688 -17.453125 15.363281 -17.0625 16.625 -16.28125 C 17.882812 -15.507812 18.878906 -14.445312 19.609375 -13.09375 C 20.347656 -11.738281 20.71875 -10.203125 20.71875 -8.484375 C 20.71875 -6.765625 20.347656 -5.234375 19.609375 -3.890625 C 18.878906 -2.554688 17.882812 -1.503906 16.625 -0.734375 C 15.363281 0.0234375 13.929688 0.40625 12.328125 0.40625 Z M 11.40625 -3.4375 C 12.800781 -3.4375 13.957031 -3.90625 14.875 -4.84375 C 15.789062 -5.78125 16.25 -6.992188 16.25 -8.484375 C 16.25 -9.972656 15.789062 -11.195312 14.875 -12.15625 C 13.957031 -13.125 12.800781 -13.609375 11.40625 -13.609375 C 9.988281 -13.609375 8.828125 -13.128906 7.921875 -12.171875 C 7.015625 -11.222656 6.5625 -10.003906 6.5625 -8.515625 C 6.5625 -7.023438 7.015625 -5.804688 7.921875 -4.859375 C 8.828125 -3.910156 9.988281 -3.4375 11.40625 -3.4375 Z M 11.40625 -3.4375 "/></g></g></g><g fill="#ffffff" fill-opacity="1"><g transform="translate(100.668675, 46.544821)"><g><path d="M 2.234375 0 L 2.234375 -24.734375 L 6.625 -24.734375 L 6.625 0 Z M 2.234375 0 "/></g></g></g><g fill="#ffffff" fill-opacity="1"><g transform="translate(108.123497, 46.544821)"><g><path d="M 8.625 0.40625 C 6.488281 0.40625 4.84375 -0.253906 3.6875 -1.578125 C 2.53125 -2.910156 1.953125 -4.859375 1.953125 -7.421875 L 1.953125 -17.046875 L 6.328125 -17.046875 L 6.328125 -7.828125 C 6.328125 -6.367188 6.625 -5.25 7.21875 -4.46875 C 7.8125 -3.6875 8.75 -3.296875 10.03125 -3.296875 C 11.25 -3.296875 12.25 -3.726562 13.03125 -4.59375 C 13.820312 -5.46875 14.21875 -6.6875 14.21875 -8.25 L 14.21875 -17.046875 L 18.625 -17.046875 L 18.625 0 L 14.734375 0 L 14.390625 -2.890625 C 13.867188 -1.878906 13.109375 -1.078125 12.109375 -0.484375 C 11.109375 0.109375 9.945312 0.40625 8.625 0.40625 Z M 8.625 0.40625 "/></g></g></g><g fill="#ffffff" fill-opacity="1"><g transform="translate(127.568326, 46.544821)"><g><path d="M 10.515625 0.40625 C 8.796875 0.40625 7.269531 0.0390625 5.9375 -0.6875 C 4.613281 -1.414062 3.570312 -2.441406 2.8125 -3.765625 C 2.0625 -5.097656 1.6875 -6.640625 1.6875 -8.390625 C 1.6875 -10.148438 2.054688 -11.71875 2.796875 -13.09375 C 3.546875 -14.46875 4.578125 -15.535156 5.890625 -16.296875 C 7.210938 -17.066406 8.765625 -17.453125 10.546875 -17.453125 C 12.222656 -17.453125 13.703125 -17.082031 14.984375 -16.34375 C 16.265625 -15.613281 17.265625 -14.613281 17.984375 -13.34375 C 18.703125 -12.070312 19.0625 -10.660156 19.0625 -9.109375 C 19.0625 -8.859375 19.054688 -8.59375 19.046875 -8.3125 C 19.035156 -8.039062 19.019531 -7.753906 19 -7.453125 L 6.046875 -7.453125 C 6.140625 -6.128906 6.601562 -5.085938 7.4375 -4.328125 C 8.269531 -3.578125 9.285156 -3.203125 10.484375 -3.203125 C 11.367188 -3.203125 12.113281 -3.398438 12.71875 -3.796875 C 13.332031 -4.191406 13.789062 -4.710938 14.09375 -5.359375 L 18.546875 -5.359375 C 18.234375 -4.285156 17.703125 -3.304688 16.953125 -2.421875 C 16.210938 -1.535156 15.296875 -0.84375 14.203125 -0.34375 C 13.117188 0.15625 11.890625 0.40625 10.515625 0.40625 Z M 10.546875 -13.875 C 9.472656 -13.875 8.519531 -13.570312 7.6875 -12.96875 C 6.863281 -12.363281 6.335938 -11.441406 6.109375 -10.203125 L 14.609375 -10.203125 C 14.535156 -11.328125 14.117188 -12.21875 13.359375 -12.875 C 12.609375 -13.539062 11.671875 -13.875 10.546875 -13.875 Z M 10.546875 -13.875 "/></g></g></g><g fill="#ffffff" fill-opacity="1"><g transform="translate(146.670934, 46.544821)"><g/></g></g></svg>