<svg xmlns="http://www.w3.org/2000/svg" xmlns:xlink="http://www.w3.org/1999/xlink" width="500" zoomAndPan="magnify" viewBox="0 0 375 74.999997" height="100" preserveAspectRatio="xMidYMid meet" version="1.0"><defs><g/><clipPath id="21ea86fabd"><path d="M 157.59375 16.351562 L 189 16.351562 L 189 47.851562 L 157.59375 47.851562 Z M 157.59375 16.351562 " clip-rule="nonzero"/></clipPath></defs><path fill="#ffffff" d="M 175.925781 35.707031 L 177.289062 35.707031 C 177.917969 35.707031 178.453125 35.171875 178.453125 34.542969 L 178.453125 32.113281 C 178.453125 31.480469 177.917969 30.949219 177.289062 30.949219 L 175.925781 30.949219 C 175.292969 30.949219 174.761719 31.480469 174.761719 32.113281 L 174.761719 34.542969 C 174.761719 35.171875 175.257812 35.707031 175.925781 35.707031 Z M 175.925781 35.707031 " fill-opacity="1" fill-rule="nonzero"/><path fill="#ffffff" d="M 170.105469 35.707031 L 171.46875 35.707031 C 172.101562 35.707031 172.632812 35.171875 172.632812 34.542969 L 172.632812 32.113281 C 172.632812 31.480469 172.101562 30.949219 171.46875 30.949219 L 170.105469 30.949219 C 169.472656 30.949219 168.941406 31.480469 168.941406 32.113281 L 168.941406 34.542969 C 168.941406 35.171875 169.472656 35.707031 170.105469 35.707031 Z M 170.105469 35.707031 " fill-opacity="1" fill-rule="nonzero"/><g clip-path="url(#21ea86fabd)"><path fill="#ffffff" d="M 173.296875 16.351562 C 182.011719 16.351562 189.09375 23.433594 189.09375 32.148438 C 189.09375 40.859375 182.011719 47.945312 173.296875 47.945312 L 159.996094 47.945312 C 158.597656 47.945312 157.5 46.8125 157.5 45.449219 L 157.5 32.148438 C 157.5 23.433594 164.582031 16.351562 173.296875 16.351562 Z M 162.222656 34.375 C 162.222656 35.40625 163.054688 36.203125 164.050781 36.203125 L 164.882812 36.203125 C 164.949219 36.203125 165.050781 36.203125 165.117188 36.171875 C 166.445312 38.996094 169.605469 40.960938 173.296875 40.960938 C 176.988281 40.960938 180.148438 38.996094 181.445312 36.203125 L 182.277344 36.203125 C 183.308594 36.203125 184.105469 35.371094 184.105469 34.375 L 184.105469 32.28125 C 184.105469 31.25 183.273438 30.449219 182.277344 30.449219 L 181.476562 30.449219 C 180.347656 28.054688 177.820312 26.261719 174.761719 25.828125 L 174.761719 23.832031 C 175.390625 23.46875 175.824219 22.800781 175.824219 22.003906 C 175.824219 20.839844 174.894531 19.910156 173.730469 19.910156 C 172.566406 19.910156 171.632812 20.839844 171.632812 22.003906 C 171.632812 22.769531 172.066406 23.46875 172.699219 23.832031 L 172.699219 25.730469 C 169.273438 25.960938 166.414062 27.824219 165.183594 30.449219 C 165.117188 30.449219 165.015625 30.417969 164.949219 30.417969 L 164.117188 30.417969 C 163.085938 30.417969 162.289062 31.25 162.289062 32.246094 L 162.289062 34.375 Z M 162.222656 34.375 " fill-opacity="1" fill-rule="nonzero"/></g><g fill="#ffffff" fill-opacity="1"><g transform="translate(16.123555, 47.212994)"><g><path d="M 2.234375 0 L 2.234375 -24.734375 L 6.625 -24.734375 L 6.625 -14.4375 C 7.195312 -15.375 7.96875 -16.109375 8.9375 -16.640625 C 9.914062 -17.179688 11.035156 -17.453125 12.296875 -17.453125 C 14.410156 -17.453125 16.046875 -16.785156 17.203125 -15.453125 C 18.359375 -14.128906 18.9375 -12.1875 18.9375 -9.625 L 18.9375 0 L 14.5625 0 L 14.5625 -9.203125 C 14.5625 -10.671875 14.269531 -11.796875 13.6875 -12.578125 C 13.101562 -13.359375 12.179688 -13.75 10.921875 -13.75 C 9.691406 -13.75 8.664062 -13.3125 7.84375 -12.4375 C 7.03125 -11.5625 6.625 -10.347656 6.625 -8.796875 L 6.625 0 Z M 2.234375 0 "/></g></g></g><g fill="#ffffff" fill-opacity="1"><g transform="translate(35.568383, 47.212994)"><g><path d="M 10.515625 0.40625 C 8.796875 0.40625 7.269531 0.0390625 5.9375 -0.6875 C 4.613281 -1.414062 3.570312 -2.441406 2.8125 -3.765625 C 2.0625 -5.097656 1.6875 -6.640625 1.6875 -8.390625 C 1.6875 -10.148438 2.054688 -11.71875 2.796875 -13.09375 C 3.546875 -14.46875 4.578125 -15.535156 5.890625 -16.296875 C 7.210938 -17.066406 8.765625 -17.453125 10.546875 -17.453125 C 12.222656 -17.453125 13.703125 -17.082031 14.984375 -16.34375 C 16.265625 -15.613281 17.265625 -14.613281 17.984375 -13.34375 C 18.703125 -12.070312 19.0625 -10.660156 19.0625 -9.109375 C 19.0625 -8.859375 19.054688 -8.59375 19.046875 -8.3125 C 19.035156 -8.039062 19.019531 -7.753906 19 -7.453125 L 6.046875 -7.453125 C 6.140625 -6.128906 6.601562 -5.085938 7.4375 -4.328125 C 8.269531 -3.578125 9.285156 -3.203125 10.484375 -3.203125 C 11.367188 -3.203125 12.113281 -3.398438 12.71875 -3.796875 C 13.332031 -4.191406 13.789062 -4.710938 14.09375 -5.359375 L 18.546875 -5.359375 C 18.234375 -4.285156 17.703125 -3.304688 16.953125 -2.421875 C 16.210938 -1.535156 15.296875 -0.84375 14.203125 -0.34375 C 13.117188 0.15625 11.890625 0.40625 10.515625 0.40625 Z M 10.546875 -13.875 C 9.472656 -13.875 8.519531 -13.570312 7.6875 -12.96875 C 6.863281 -12.363281 6.335938 -11.441406 6.109375 -10.203125 L 14.609375 -10.203125 C 14.535156 -11.328125 14.117188 -12.21875 13.359375 -12.875 C 12.609375 -13.539062 11.671875 -13.875 10.546875 -13.875 Z M 10.546875 -13.875 "/></g></g></g><g fill="#ffffff" fill-opacity="1"><g transform="translate(54.669659, 47.212994)"><g><path d="M 2.234375 0 L 2.234375 -24.734375 L 6.625 -24.734375 L 6.625 0 Z M 2.234375 0 "/></g></g></g><g fill="#ffffff" fill-opacity="1"><g transform="translate(62.124477, 47.212994)"><g><path d="M 2.234375 0 L 2.234375 -24.734375 L 6.625 -24.734375 L 6.625 0 Z M 2.234375 0 "/></g></g></g><g fill="#ffffff" fill-opacity="1"><g transform="translate(69.579295, 47.212994)"><g><path d="M 10.40625 0.40625 C 8.757812 0.40625 7.273438 0.03125 5.953125 -0.71875 C 4.640625 -1.476562 3.597656 -2.523438 2.828125 -3.859375 C 2.066406 -5.203125 1.6875 -6.753906 1.6875 -8.515625 C 1.6875 -10.285156 2.070312 -11.835938 2.84375 -13.171875 C 3.625 -14.515625 4.671875 -15.5625 5.984375 -16.3125 C 7.304688 -17.070312 8.789062 -17.453125 10.4375 -17.453125 C 12.070312 -17.453125 13.546875 -17.070312 14.859375 -16.3125 C 16.179688 -15.5625 17.222656 -14.515625 17.984375 -13.171875 C 18.753906 -11.835938 19.140625 -10.285156 19.140625 -8.515625 C 19.140625 -6.753906 18.753906 -5.203125 17.984375 -3.859375 C 17.222656 -2.523438 16.175781 -1.476562 14.84375 -0.71875 C 13.507812 0.03125 12.03125 0.40625 10.40625 0.40625 Z M 10.40625 -3.40625 C 11.550781 -3.40625 12.546875 -3.832031 13.390625 -4.6875 C 14.242188 -5.550781 14.671875 -6.828125 14.671875 -8.515625 C 14.671875 -10.210938 14.242188 -11.488281 13.390625 -12.34375 C 12.546875 -13.207031 11.5625 -13.640625 10.4375 -13.640625 C 9.269531 -13.640625 8.269531 -13.207031 7.4375 -12.34375 C 6.601562 -11.488281 6.1875 -10.210938 6.1875 -8.515625 C 6.1875 -6.828125 6.601562 -5.550781 7.4375 -4.6875 C 8.269531 -3.832031 9.257812 -3.40625 10.40625 -3.40625 Z M 10.40625 -3.40625 "/></g></g></g><g fill="#ffffff" fill-opacity="1"><g transform="translate(88.955413, 47.212994)"><g><path d="M 12.328125 0.40625 C 11.046875 0.40625 9.925781 0.164062 8.96875 -0.3125 C 8.007812 -0.789062 7.226562 -1.46875 6.625 -2.34375 L 6.15625 0 L 2.234375 0 L 2.234375 -24.734375 L 6.625 -24.734375 L 6.625 -14.609375 C 7.175781 -15.359375 7.90625 -16.019531 8.8125 -16.59375 C 9.71875 -17.164062 10.890625 -17.453125 12.328125 -17.453125 C 13.929688 -17.453125 15.363281 -17.0625 16.625 -16.28125 C 17.882812 -15.507812 18.878906 -14.445312 19.609375 -13.09375 C 20.347656 -11.738281 20.71875 -10.203125 20.71875 -8.484375 C 20.71875 -6.765625 20.347656 -5.234375 19.609375 -3.890625 C 18.878906 -2.554688 17.882812 -1.503906 16.625 -0.734375 C 15.363281 0.0234375 13.929688 0.40625 12.328125 0.40625 Z M 11.40625 -3.4375 C 12.800781 -3.4375 13.957031 -3.90625 14.875 -4.84375 C 15.789062 -5.78125 16.25 -6.992188 16.25 -8.484375 C 16.25 -9.972656 15.789062 -11.195312 14.875 -12.15625 C 13.957031 -13.125 12.800781 -13.609375 11.40625 -13.609375 C 9.988281 -13.609375 8.828125 -13.128906 7.921875 -12.171875 C 7.015625 -11.222656 6.5625 -10.003906 6.5625 -8.515625 C 6.5625 -7.023438 7.015625 -5.804688 7.921875 -4.859375 C 8.828125 -3.910156 9.988281 -3.4375 11.40625 -3.4375 Z M 11.40625 -3.4375 "/></g></g></g><g fill="#ffffff" fill-opacity="1"><g transform="translate(109.91188, 47.212994)"><g><path d="M 2.234375 0 L 2.234375 -24.734375 L 6.625 -24.734375 L 6.625 0 Z M 2.234375 0 "/></g></g></g><g fill="#ffffff" fill-opacity="1"><g transform="translate(117.366702, 47.212994)"><g><path d="M 8.625 0.40625 C 6.488281 0.40625 4.84375 -0.253906 3.6875 -1.578125 C 2.53125 -2.910156 1.953125 -4.859375 1.953125 -7.421875 L 1.953125 -17.046875 L 6.328125 -17.046875 L 6.328125 -7.828125 C 6.328125 -6.367188 6.625 -5.25 7.21875 -4.46875 C 7.8125 -3.6875 8.75 -3.296875 10.03125 -3.296875 C 11.25 -3.296875 12.25 -3.726562 13.03125 -4.59375 C 13.820312 -5.46875 14.21875 -6.6875 14.21875 -8.25 L 14.21875 -17.046875 L 18.625 -17.046875 L 18.625 0 L 14.734375 0 L 14.390625 -2.890625 C 13.867188 -1.878906 13.109375 -1.078125 12.109375 -0.484375 C 11.109375 0.109375 9.945312 0.40625 8.625 0.40625 Z M 8.625 0.40625 "/></g></g></g><g fill="#ffffff" fill-opacity="1"><g transform="translate(136.811532, 47.212994)"><g><path d="M 10.515625 0.40625 C 8.796875 0.40625 7.269531 0.0390625 5.9375 -0.6875 C 4.613281 -1.414062 3.570312 -2.441406 2.8125 -3.765625 C 2.0625 -5.097656 1.6875 -6.640625 1.6875 -8.390625 C 1.6875 -10.148438 2.054688 -11.71875 2.796875 -13.09375 C 3.546875 -14.46875 4.578125 -15.535156 5.890625 -16.296875 C 7.210938 -17.066406 8.765625 -17.453125 10.546875 -17.453125 C 12.222656 -17.453125 13.703125 -17.082031 14.984375 -16.34375 C 16.265625 -15.613281 17.265625 -14.613281 17.984375 -13.34375 C 18.703125 -12.070312 19.0625 -10.660156 19.0625 -9.109375 C 19.0625 -8.859375 19.054688 -8.59375 19.046875 -8.3125 C 19.035156 -8.039062 19.019531 -7.753906 19 -7.453125 L 6.046875 -7.453125 C 6.140625 -6.128906 6.601562 -5.085938 7.4375 -4.328125 C 8.269531 -3.578125 9.285156 -3.203125 10.484375 -3.203125 C 11.367188 -3.203125 12.113281 -3.398438 12.71875 -3.796875 C 13.332031 -4.191406 13.789062 -4.710938 14.09375 -5.359375 L 18.546875 -5.359375 C 18.234375 -4.285156 17.703125 -3.304688 16.953125 -2.421875 C 16.210938 -1.535156 15.296875 -0.84375 14.203125 -0.34375 C 13.117188 0.15625 11.890625 0.40625 10.515625 0.40625 Z M 10.546875 -13.875 C 9.472656 -13.875 8.519531 -13.570312 7.6875 -12.96875 C 6.863281 -12.363281 6.335938 -11.441406 6.109375 -10.203125 L 14.609375 -10.203125 C 14.535156 -11.328125 14.117188 -12.21875 13.359375 -12.875 C 12.609375 -13.539062 11.671875 -13.875 10.546875 -13.875 Z M 10.546875 -13.875 "/></g></g></g><g fill="#ffffff" fill-opacity="1"><g transform="translate(155.91414, 47.212994)"><g/></g></g><path stroke-linecap="butt" transform="matrix(0, -0.75, 0.75, 0, 160.548628, 37.497597)" fill="none" stroke-linejoin="miter" d="M 0.00200452 0.997663 L 15.272839 0.997663 " stroke="#ffffff" stroke-width="2" stroke-opacity="1" stroke-miterlimit="4"/></svg>