<svg xmlns="http://www.w3.org/2000/svg" xmlns:xlink="http://www.w3.org/1999/xlink" width="500" zoomAndPan="magnify" viewBox="0 0 375 74.999997" height="100" preserveAspectRatio="xMidYMid meet" version="1.0"><defs><g/><clipPath id="7b3e7ebf0d"><path d="M 245.367188 16.351562 L 276.773438 16.351562 L 276.773438 47.851562 L 245.367188 47.851562 Z M 245.367188 16.351562 " clip-rule="nonzero"/></clipPath></defs><path fill="#ffffff" d="M 263.699219 35.707031 L 265.0625 35.707031 C 265.691406 35.707031 266.226562 35.171875 266.226562 34.542969 L 266.226562 32.113281 C 266.226562 31.480469 265.691406 30.949219 265.0625 30.949219 L 263.699219 30.949219 C 263.066406 30.949219 262.535156 31.480469 262.535156 32.113281 L 262.535156 34.542969 C 262.535156 35.171875 263.03125 35.707031 263.699219 35.707031 Z M 263.699219 35.707031 " fill-opacity="1" fill-rule="nonzero"/><path fill="#ffffff" d="M 257.878906 35.707031 L 259.242188 35.707031 C 259.871094 35.707031 260.40625 35.171875 260.40625 34.542969 L 260.40625 32.113281 C 260.40625 31.480469 259.871094 30.949219 259.242188 30.949219 L 257.878906 30.949219 C 257.246094 30.949219 256.714844 31.480469 256.714844 32.113281 L 256.714844 34.542969 C 256.714844 35.171875 257.246094 35.707031 257.878906 35.707031 Z M 257.878906 35.707031 " fill-opacity="1" fill-rule="nonzero"/><g clip-path="url(#7b3e7ebf0d)"><path fill="#ffffff" d="M 261.070312 16.351562 C 269.785156 16.351562 276.867188 23.433594 276.867188 32.148438 C 276.867188 40.859375 269.785156 47.945312 261.070312 47.945312 L 247.765625 47.945312 C 246.371094 47.945312 245.273438 46.8125 245.273438 45.449219 L 245.273438 32.148438 C 245.273438 23.433594 252.355469 16.351562 261.070312 16.351562 Z M 249.996094 34.375 C 249.996094 35.40625 250.828125 36.203125 251.824219 36.203125 L 252.65625 36.203125 C 252.722656 36.203125 252.824219 36.203125 252.890625 36.171875 C 254.21875 38.996094 257.378906 40.960938 261.070312 40.960938 C 264.761719 40.960938 267.921875 38.996094 269.21875 36.203125 L 270.050781 36.203125 C 271.082031 36.203125 271.878906 35.371094 271.878906 34.375 L 271.878906 32.28125 C 271.878906 31.25 271.046875 30.449219 270.050781 30.449219 L 269.25 30.449219 C 268.121094 28.054688 265.59375 26.261719 262.535156 25.828125 L 262.535156 23.832031 C 263.164062 23.46875 263.597656 22.800781 263.597656 22.003906 C 263.597656 20.839844 262.667969 19.910156 261.503906 19.910156 C 260.339844 19.910156 259.40625 20.839844 259.40625 22.003906 C 259.40625 22.769531 259.839844 23.46875 260.472656 23.832031 L 260.472656 25.730469 C 257.046875 25.960938 254.1875 27.824219 252.957031 30.449219 C 252.890625 30.449219 252.789062 30.417969 252.722656 30.417969 L 251.890625 30.417969 C 250.859375 30.417969 250.0625 31.25 250.0625 32.246094 L 250.0625 34.375 Z M 249.996094 34.375 " fill-opacity="1" fill-rule="nonzero"/></g><g fill="#ffffff" fill-opacity="1"><g transform="translate(103.146731, 47.212994)"><g><path d="M 2.234375 0 L 2.234375 -24.734375 L 6.625 -24.734375 L 6.625 -14.4375 C 7.195312 -15.375 7.96875 -16.109375 8.9375 -16.640625 C 9.914062 -17.179688 11.035156 -17.453125 12.296875 -17.453125 C 14.410156 -17.453125 16.046875 -16.785156 17.203125 -15.453125 C 18.359375 -14.128906 18.9375 -12.1875 18.9375 -9.625 L 18.9375 0 L 14.5625 0 L 14.5625 -9.203125 C 14.5625 -10.671875 14.269531 -11.796875 13.6875 -12.578125 C 13.101562 -13.359375 12.179688 -13.75 10.921875 -13.75 C 9.691406 -13.75 8.664062 -13.3125 7.84375 -12.4375 C 7.03125 -11.5625 6.625 -10.347656 6.625 -8.796875 L 6.625 0 Z M 2.234375 0 "/></g></g></g><g fill="#ffffff" fill-opacity="1"><g transform="translate(122.591559, 47.212994)"><g><path d="M 10.515625 0.40625 C 8.796875 0.40625 7.269531 0.0390625 5.9375 -0.6875 C 4.613281 -1.414062 3.570312 -2.441406 2.8125 -3.765625 C 2.0625 -5.097656 1.6875 -6.640625 1.6875 -8.390625 C 1.6875 -10.148438 2.054688 -11.71875 2.796875 -13.09375 C 3.546875 -14.46875 4.578125 -15.535156 5.890625 -16.296875 C 7.210938 -17.066406 8.765625 -17.453125 10.546875 -17.453125 C 12.222656 -17.453125 13.703125 -17.082031 14.984375 -16.34375 C 16.265625 -15.613281 17.265625 -14.613281 17.984375 -13.34375 C 18.703125 -12.070312 19.0625 -10.660156 19.0625 -9.109375 C 19.0625 -8.859375 19.054688 -8.59375 19.046875 -8.3125 C 19.035156 -8.039062 19.019531 -7.753906 19 -7.453125 L 6.046875 -7.453125 C 6.140625 -6.128906 6.601562 -5.085938 7.4375 -4.328125 C 8.269531 -3.578125 9.285156 -3.203125 10.484375 -3.203125 C 11.367188 -3.203125 12.113281 -3.398438 12.71875 -3.796875 C 13.332031 -4.191406 13.789062 -4.710938 14.09375 -5.359375 L 18.546875 -5.359375 C 18.234375 -4.285156 17.703125 -3.304688 16.953125 -2.421875 C 16.210938 -1.535156 15.296875 -0.84375 14.203125 -0.34375 C 13.117188 0.15625 11.890625 0.40625 10.515625 0.40625 Z M 10.546875 -13.875 C 9.472656 -13.875 8.519531 -13.570312 7.6875 -12.96875 C 6.863281 -12.363281 6.335938 -11.441406 6.109375 -10.203125 L 14.609375 -10.203125 C 14.535156 -11.328125 14.117188 -12.21875 13.359375 -12.875 C 12.609375 -13.539062 11.671875 -13.875 10.546875 -13.875 Z M 10.546875 -13.875 "/></g></g></g><g fill="#ffffff" fill-opacity="1"><g transform="translate(141.692835, 47.212994)"><g><path d="M 2.234375 0 L 2.234375 -24.734375 L 6.625 -24.734375 L 6.625 0 Z M 2.234375 0 "/></g></g></g><g fill="#ffffff" fill-opacity="1"><g transform="translate(149.147654, 47.212994)"><g><path d="M 2.234375 0 L 2.234375 -24.734375 L 6.625 -24.734375 L 6.625 0 Z M 2.234375 0 "/></g></g></g><g fill="#ffffff" fill-opacity="1"><g transform="translate(156.602472, 47.212994)"><g><path d="M 10.40625 0.40625 C 8.757812 0.40625 7.273438 0.03125 5.953125 -0.71875 C 4.640625 -1.476562 3.597656 -2.523438 2.828125 -3.859375 C 2.066406 -5.203125 1.6875 -6.753906 1.6875 -8.515625 C 1.6875 -10.285156 2.070312 -11.835938 2.84375 -13.171875 C 3.625 -14.515625 4.671875 -15.5625 5.984375 -16.3125 C 7.304688 -17.070312 8.789062 -17.453125 10.4375 -17.453125 C 12.070312 -17.453125 13.546875 -17.070312 14.859375 -16.3125 C 16.179688 -15.5625 17.222656 -14.515625 17.984375 -13.171875 C 18.753906 -11.835938 19.140625 -10.285156 19.140625 -8.515625 C 19.140625 -6.753906 18.753906 -5.203125 17.984375 -3.859375 C 17.222656 -2.523438 16.175781 -1.476562 14.84375 -0.71875 C 13.507812 0.03125 12.03125 0.40625 10.40625 0.40625 Z M 10.40625 -3.40625 C 11.550781 -3.40625 12.546875 -3.832031 13.390625 -4.6875 C 14.242188 -5.550781 14.671875 -6.828125 14.671875 -8.515625 C 14.671875 -10.210938 14.242188 -11.488281 13.390625 -12.34375 C 12.546875 -13.207031 11.5625 -13.640625 10.4375 -13.640625 C 9.269531 -13.640625 8.269531 -13.207031 7.4375 -12.34375 C 6.601562 -11.488281 6.1875 -10.210938 6.1875 -8.515625 C 6.1875 -6.828125 6.601562 -5.550781 7.4375 -4.6875 C 8.269531 -3.832031 9.257812 -3.40625 10.40625 -3.40625 Z M 10.40625 -3.40625 "/></g></g></g><g fill="#ffffff" fill-opacity="1"><g transform="translate(175.978589, 47.212994)"><g><path d="M 12.328125 0.40625 C 11.046875 0.40625 9.925781 0.164062 8.96875 -0.3125 C 8.007812 -0.789062 7.226562 -1.46875 6.625 -2.34375 L 6.15625 0 L 2.234375 0 L 2.234375 -24.734375 L 6.625 -24.734375 L 6.625 -14.609375 C 7.175781 -15.359375 7.90625 -16.019531 8.8125 -16.59375 C 9.71875 -17.164062 10.890625 -17.453125 12.328125 -17.453125 C 13.929688 -17.453125 15.363281 -17.0625 16.625 -16.28125 C 17.882812 -15.507812 18.878906 -14.445312 19.609375 -13.09375 C 20.347656 -11.738281 20.71875 -10.203125 20.71875 -8.484375 C 20.71875 -6.765625 20.347656 -5.234375 19.609375 -3.890625 C 18.878906 -2.554688 17.882812 -1.503906 16.625 -0.734375 C 15.363281 0.0234375 13.929688 0.40625 12.328125 0.40625 Z M 11.40625 -3.4375 C 12.800781 -3.4375 13.957031 -3.90625 14.875 -4.84375 C 15.789062 -5.78125 16.25 -6.992188 16.25 -8.484375 C 16.25 -9.972656 15.789062 -11.195312 14.875 -12.15625 C 13.957031 -13.125 12.800781 -13.609375 11.40625 -13.609375 C 9.988281 -13.609375 8.828125 -13.128906 7.921875 -12.171875 C 7.015625 -11.222656 6.5625 -10.003906 6.5625 -8.515625 C 6.5625 -7.023438 7.015625 -5.804688 7.921875 -4.859375 C 8.828125 -3.910156 9.988281 -3.4375 11.40625 -3.4375 Z M 11.40625 -3.4375 "/></g></g></g><g fill="#ffffff" fill-opacity="1"><g transform="translate(196.935057, 47.212994)"><g><path d="M 2.234375 0 L 2.234375 -24.734375 L 6.625 -24.734375 L 6.625 0 Z M 2.234375 0 "/></g></g></g><g fill="#ffffff" fill-opacity="1"><g transform="translate(204.389879, 47.212994)"><g><path d="M 8.625 0.40625 C 6.488281 0.40625 4.84375 -0.253906 3.6875 -1.578125 C 2.53125 -2.910156 1.953125 -4.859375 1.953125 -7.421875 L 1.953125 -17.046875 L 6.328125 -17.046875 L 6.328125 -7.828125 C 6.328125 -6.367188 6.625 -5.25 7.21875 -4.46875 C 7.8125 -3.6875 8.75 -3.296875 10.03125 -3.296875 C 11.25 -3.296875 12.25 -3.726562 13.03125 -4.59375 C 13.820312 -5.46875 14.21875 -6.6875 14.21875 -8.25 L 14.21875 -17.046875 L 18.625 -17.046875 L 18.625 0 L 14.734375 0 L 14.390625 -2.890625 C 13.867188 -1.878906 13.109375 -1.078125 12.109375 -0.484375 C 11.109375 0.109375 9.945312 0.40625 8.625 0.40625 Z M 8.625 0.40625 "/></g></g></g><g fill="#ffffff" fill-opacity="1"><g transform="translate(223.834708, 47.212994)"><g><path d="M 10.515625 0.40625 C 8.796875 0.40625 7.269531 0.0390625 5.9375 -0.6875 C 4.613281 -1.414062 3.570312 -2.441406 2.8125 -3.765625 C 2.0625 -5.097656 1.6875 -6.640625 1.6875 -8.390625 C 1.6875 -10.148438 2.054688 -11.71875 2.796875 -13.09375 C 3.546875 -14.46875 4.578125 -15.535156 5.890625 -16.296875 C 7.210938 -17.066406 8.765625 -17.453125 10.546875 -17.453125 C 12.222656 -17.453125 13.703125 -17.082031 14.984375 -16.34375 C 16.265625 -15.613281 17.265625 -14.613281 17.984375 -13.34375 C 18.703125 -12.070312 19.0625 -10.660156 19.0625 -9.109375 C 19.0625 -8.859375 19.054688 -8.59375 19.046875 -8.3125 C 19.035156 -8.039062 19.019531 -7.753906 19 -7.453125 L 6.046875 -7.453125 C 6.140625 -6.128906 6.601562 -5.085938 7.4375 -4.328125 C 8.269531 -3.578125 9.285156 -3.203125 10.484375 -3.203125 C 11.367188 -3.203125 12.113281 -3.398438 12.71875 -3.796875 C 13.332031 -4.191406 13.789062 -4.710938 14.09375 -5.359375 L 18.546875 -5.359375 C 18.234375 -4.285156 17.703125 -3.304688 16.953125 -2.421875 C 16.210938 -1.535156 15.296875 -0.84375 14.203125 -0.34375 C 13.117188 0.15625 11.890625 0.40625 10.515625 0.40625 Z M 10.546875 -13.875 C 9.472656 -13.875 8.519531 -13.570312 7.6875 -12.96875 C 6.863281 -12.363281 6.335938 -11.441406 6.109375 -10.203125 L 14.609375 -10.203125 C 14.535156 -11.328125 14.117188 -12.21875 13.359375 -12.875 C 12.609375 -13.539062 11.671875 -13.875 10.546875 -13.875 Z M 10.546875 -13.875 "/></g></g></g><g fill="#ffffff" fill-opacity="1"><g transform="translate(242.937316, 47.212994)"><g/></g></g><path stroke-linecap="butt" transform="matrix(0, -0.75, 0.75, 0, 248.270759, 37.497597)" fill="none" stroke-linejoin="miter" d="M 0.00200452 0.998363 L 15.272839 0.998363 " stroke="#ffffff" stroke-width="2" stroke-opacity="1" stroke-miterlimit="4"/></svg>